<svg width="161" height="38" viewBox="0 0 161 38" xmlns="http://www.w3.org/2000/svg" xmlns:xlink="http://www.w3.org/1999/xlink"><use xlink:href="#sa_logo_with_name_path0_fill" fill="#fff"></use><use xlink:href="#sa_logo_with_name_path1_fill" transform="translate(40.752 13.233)" fill="#fff"></use><use xlink:href="#sa_logo_with_name_path2_fill" transform="translate(53.643 15.181)" fill="#fff"></use><use xlink:href="#sa_logo_with_name_path3_fill" transform="translate(62.474 18.342)" fill="#fff"></use><use xlink:href="#sa_logo_with_name_path4_fill" transform="translate(76.775 18.342)" fill="#fff"></use><use xlink:href="#sa_logo_with_name_path5_fill" transform="translate(88.191 13.103)" fill="#fff"></use><use xlink:href="#sa_logo_with_name_path6_fill" transform="translate(100.589 13.591)" fill="#fff"></use><use xlink:href="#sa_logo_with_name_path7_fill" transform="translate(114.799 18.7)" fill="#fff"></use><use xlink:href="#sa_logo_with_name_path8_fill" transform="translate(133.261 18.342)" fill="#fff"></use><use xlink:href="#sa_logo_with_name_path9_fill" transform="translate(147.45 18.7)" fill="#fff"></use><defs><path id="sa_logo_with_name_path0_fill" fill-rule="evenodd" d="M11.558 31.92h.013c.117 1.028 2.69 1.85 5.85 1.85 3.136 0 5.696-.81 5.847-1.828v3.415h3.842a1.92 1.92 0 0 0 1.917-1.92V18.65h3.866c2.039 0 2.528-1.22 1.086-2.664L18.489.454a1.538 1.538 0 0 0-2.171-.01L.828 15.992c-1.441 1.444-.953 2.66 1.087 2.66H5.99v14.785a1.92 1.92 0 0 0 1.918 1.92h3.65v-1.323 2.043c0 1.062 2.62 1.923 5.854 1.923s5.855-.86 5.855-1.923v-2.02c-.15 1.018-2.71 1.828-5.847 1.828-3.16 0-5.746-.822-5.863-1.85v-2.116zm11.71-6.872c0 1.062-2.62 1.923-5.855 1.923-3.233 0-5.855-.86-5.855-1.923v-1.922c0-1.063 2.622-1.923 5.855-1.923 3.234 0 5.855.86 5.855 1.922v1.923zm0 4.491c0 1.062-2.62 1.923-5.855 1.923-3.233 0-5.855-.86-5.855-1.923v-2.042h.013c.117 1.028 2.69 1.85 5.85 1.85 3.136 0 5.696-.81 5.847-1.828v2.02z"></path><path id="sa_logo_with_name_path1_fill" d="M7.012 18.597c3.799 0 6.476-2.044 6.476-5.39 0-3.653-3.009-4.598-5.839-5.492C4.946 6.897 4.258 6.31 4.258 5.21c0-1.022.867-1.788 2.346-1.788 1.81 0 2.779.945 3.416 2.3l2.958-1.712C11.78 1.507 9.536 0 6.604 0 3.544 0 .739 1.941.739 5.313c0 3.398 2.652 4.547 5.38 5.34 2.652.766 3.85 1.277 3.85 2.605 0 .996-.739 1.89-2.855 1.89-2.219 0-3.468-1.073-4.105-2.733L0 14.178c.969 2.656 3.366 4.419 7.012 4.419z"></path><path id="sa_logo_with_name_path2_fill" d="M8.389 6.686V3.52H5.507V.577a.575.575 0 0 0-.863-.499L2.218 1.486v2.033H0v3.167h2.218V12c0 3.45 1.556 4.803 6.17 4.292v-2.989c-1.886.102-2.88.077-2.88-1.303V6.686h2.88z"></path><path id="sa_logo_with_name_path3_fill" d="M10.735.358a.384.384 0 0 0-.383.384v1.123C9.434.715 8.057 0 6.196 0 2.805 0 0 2.938 0 6.744c0 3.806 2.805 6.744 6.196 6.744 1.861 0 3.238-.715 4.156-1.865v1.123c0 .212.172.384.383.384h2.906V.358h-2.906zm-3.927 9.988c-2.014 0-3.519-1.456-3.519-3.602s1.505-3.602 3.519-3.602c2.04 0 3.544 1.456 3.544 3.602s-1.504 3.602-3.544 3.602z"></path><path id="sa_logo_with_name_path4_fill" d="M3.901 3.985c0-.69.663-1.047 1.479-1.047.943 0 1.657.485 2.04 1.302l2.805-1.532C9.23.945 7.445 0 5.38 0 2.754 0 .535 1.456.535 4.062c0 4.496 6.579 3.474 6.579 5.339 0 .74-.714 1.098-1.76 1.098-1.274 0-2.141-.613-2.498-1.66L0 10.448c.918 1.967 2.805 3.04 5.354 3.04 2.729 0 5.125-1.329 5.125-4.087 0-4.7-6.578-3.526-6.578-5.416z"></path><path id="sa_logo_with_name_path5_fill" d="M7.088 5.24c-1.708 0-3.034.638-3.799 1.787V.577A.575.575 0 0 0 2.425.08L0 1.491V18.37h3.29v-6.897c0-2.222 1.197-3.168 2.804-3.168 1.479 0 2.524.895 2.524 2.632v7.433h3.29v-7.842c0-3.398-2.117-5.288-4.82-5.288z"></path><path id="sa_logo_with_name_path6_fill" d="M13.055 17.881h3.824L10.607 0h-4.36L0 17.881h3.8l1.07-3.218h7.114l1.07 3.218zm-7.063-6.514L8.44 4.063l2.447 7.305H5.992z"></path><path id="sa_logo_with_name_path7_fill" d="M15.579 0l-2.167 7.868L11.092 0H7.98L5.66 7.842 3.492 0H0l4.054 12.773H7.19l2.346-7.74 2.346 7.74h3.136L19.072 0h-3.493z"></path><path id="sa_logo_with_name_path8_fill" d="M10.736.358a.384.384 0 0 0-.384.384v1.123C9.434.715 8.057 0 6.196 0 2.805 0 0 2.938 0 6.744c0 3.806 2.805 6.744 6.196 6.744 1.861 0 3.238-.715 4.156-1.865v1.123c0 .212.172.384.383.384h2.906V.358h-2.905zm-3.928 9.988c-2.015 0-3.519-1.456-3.519-3.602s1.504-3.602 3.519-3.602c2.04 0 3.544 1.456 3.544 3.602s-1.505 3.602-3.544 3.602z"></path><path id="sa_logo_with_name_path9_fill" d="M9.74 0L6.91 8.583 3.595 0H0l5.227 12.364c-.612 1.711-1.53 2.478-3.34 2.452v3.065c3.238.18 5.405-1.43 6.73-5.108L13.258 0H9.74z"></path></defs></svg>